<svg id="Capa_1" enable-background="new 0 0 512 512" height="512" viewBox="0 0 512 512" fill="#4f0783" width="512" xmlns="http://www.w3.org/2000/svg"><g><path d="m144.974 0h-40.574c-48.188 0-88.764 36.189-94.385 84.177-13.354 114.013-13.354 229.632 0 343.646 5.621 47.989 46.197 84.177 94.385 84.177h40.574c24.813 0 45-20.187 45-45v-80c0-24.813-20.187-45-45-45h-24.772c-7.504 0-13.756-5.447-14.864-12.953-7.157-48.471-7.157-97.624 0-146.094 1.108-7.506 7.36-12.953 14.864-12.953h24.772c24.813 0 45-20.187 45-45v-80c0-24.813-20.186-45-45-45z"/><path d="m507.606 144.394-40-40c-5.858-5.858-15.355-5.858-21.213 0-5.858 5.858-5.858 15.355 0 21.213l14.394 14.393h-203.787c-8.284 0-15 6.716-15 15s6.716 15 15 15h203.787l-14.394 14.394c-5.858 5.858-5.858 15.355 0 21.213 5.858 5.858 15.355 5.858 21.213 0l40-40c5.859-5.858 5.859-15.355 0-21.213z"/><circle cx="377" cy="285" r="65"/><path d="m443.882 352.399c-17.181 17.051-40.821 27.601-66.882 27.601s-49.701-10.55-66.882-27.601c-28.713 16.361-48.118 47.256-48.118 82.601v20c0 8.284 6.716 15 15 15h200c8.284 0 15-6.716 15-15v-20c0-35.345-19.405-66.24-48.118-82.601z"/><path d="m286.394 105.607c5.858 5.858 15.355 5.858 21.213 0 5.858-5.858 5.858-15.355 0-21.213l-14.394-14.394h203.787c8.284 0 15-6.716 15-15s-6.716-15-15-15h-203.787l14.394-14.394c5.858-5.858 5.858-15.355 0-21.213-5.858-5.858-15.355-5.858-21.213 0l-40 40c-5.858 5.858-5.858 15.355 0 21.213z"/></g></svg>